<svg xmlns="http://www.w3.org/2000/svg" version="1.1" xmlns:xlink="http://www.w3.org/1999/xlink" xmlns:svgjs="http://svgjs.dev/svgjs" width="1000" height="623" viewBox="0 0 1000 623"><g transform="matrix(1,0,0,1,-0.6060606060606233,0.2522267206477409)"><svg viewBox="0 0 396 247" data-background-color="#8dbdff" preserveAspectRatio="xMidYMid meet" height="623" width="1000" xmlns="http://www.w3.org/2000/svg" xmlns:xlink="http://www.w3.org/1999/xlink"><g id="tight-bounds" transform="matrix(1,0,0,1,0.2400000000000091,-0.09999999999999432)"><svg viewBox="0 0 395.52 247.2" height="247.2" width="395.52"><g><svg></svg></g><g><svg viewBox="0 0 395.52 247.2" height="247.2" width="395.52"><g transform="matrix(1,0,0,1,75.54432000000001,100.8600227871363)"><svg viewBox="0 0 244.43135999999996 45.4799544257274" height="45.4799544257274" width="244.43135999999996"><g><svg viewBox="0 0 244.43135999999996 45.4799544257274" height="45.4799544257274" width="244.43135999999996"><g><svg viewBox="0 0 244.43135999999996 45.4799544257274" height="45.4799544257274" width="244.43135999999996"><g><svg viewBox="0 0 244.43135999999996 45.4799544257274" height="45.4799544257274" width="244.43135999999996"><g id="textblocktransform"><svg viewBox="0 0 244.43135999999996 45.4799544257274" height="45.4799544257274" width="244.43135999999996" id="textblock"><g><svg viewBox="0 0 244.43135999999996 45.4799544257274" height="45.4799544257274" width="244.43135999999996"><g transform="matrix(1,0,0,1,0,0)"><svg width="244.43135999999996" viewBox="3.85 -35.9 195.88 36.449999999999996" height="45.4799544257274" data-palette-color="#1e88e5"><path d="M20.6-18.2L20.6-14.65 7.9-14.65 7.9 0 3.85 0 3.85-33.7 22.35-33.7 22.35-30.15 7.9-30.15 7.9-18.2 20.6-18.2ZM35.85-3.05L35.85-3.05Q38.55-3.05 40.15-4.58 41.75-6.1 41.75-8.45L41.75-8.45 41.75-11.7 37.35-11.7Q34.15-11.7 32.55-10.45 30.95-9.2 30.95-7.3 30.95-5.4 32.2-4.23 33.45-3.05 35.85-3.05ZM41.8 0L41.8-3Q39.85 0.25 34.7 0.25L34.7 0.25Q31.15 0.25 28.97-1.85 26.8-3.95 26.8-7.15L26.8-7.15Q26.8-10.8 29.57-12.83 32.35-14.85 37.15-14.85L37.15-14.85 41.75-14.85 41.75-16.15Q41.75-19.15 40.4-20.68 39.05-22.2 35.85-22.2L35.85-22.2Q31.8-22.2 28.65-20.05L28.65-20.05 28.65-24Q31.5-25.75 36.15-25.75L36.15-25.75Q45.7-25.75 45.7-16.05L45.7-16.05 45.7 0 41.8 0ZM56.84-25.35L56.84 0 52.9 0 52.9-25.35 56.84-25.35ZM56.7-35.15Q57.45-34.4 57.45-33.3 57.45-32.2 56.7-31.48 55.95-30.75 54.84-30.75 53.75-30.75 53.02-31.48 52.3-32.2 52.3-33.3 52.3-34.4 53.02-35.15 53.75-35.9 54.84-35.9 55.95-35.9 56.7-35.15ZM68.24-13.85L68.24 0 64.29 0 64.34-25.35 68.24-25.35 68.24-20.9Q70.24-25.6 75.14-25.6L75.14-25.6Q76.04-25.6 76.54-25.5L76.54-25.5 76.54-21.6Q75.49-21.95 74.39-21.95L74.39-21.95Q71.74-21.95 69.99-19.5 68.24-17.05 68.24-13.85L68.24-13.85ZM99.24-3.65L99.24 0 80.84 0 80.84-33.7 84.89-33.7 84.89-3.65 99.24-3.65ZM112.24-3.05L112.24-3.05Q114.94-3.05 116.54-4.58 118.14-6.1 118.14-8.45L118.14-8.45 118.14-11.7 113.74-11.7Q110.54-11.7 108.94-10.45 107.34-9.2 107.34-7.3 107.34-5.4 108.59-4.23 109.84-3.05 112.24-3.05ZM118.19 0L118.19-3Q116.24 0.25 111.09 0.25L111.09 0.25Q107.54 0.25 105.36-1.85 103.19-3.95 103.19-7.15L103.19-7.15Q103.19-10.8 105.96-12.83 108.74-14.85 113.54-14.85L113.54-14.85 118.14-14.85 118.14-16.15Q118.14-19.15 116.79-20.68 115.44-22.2 112.24-22.2L112.24-22.2Q108.19-22.2 105.04-20.05L105.04-20.05 105.04-24Q107.89-25.75 112.54-25.75L112.54-25.75Q122.09-25.75 122.09-16.05L122.09-16.05 122.09 0 118.19 0ZM149.09-17.45L149.09 0 145.13 0 145.13-16.4Q145.13-19.2 143.71-20.68 142.28-22.15 139.99-22.15L139.99-22.15Q137.13-22.15 135.06-19.95 132.99-17.75 132.99-13.85L132.99-13.85 132.99 0 129.09 0 129.09-25.35 132.99-25.35 132.99-20.95Q135.24-25.7 140.99-25.7L140.99-25.7Q144.69-25.7 146.88-23.45 149.09-21.2 149.09-17.45L149.09-17.45ZM173.53-4.65L173.53-0.9Q171.13 0.55 167.63 0.55L167.63 0.55Q161.63 0.55 158.11-3.28 154.58-7.1 154.58-12.6L154.58-12.6Q154.58-18 158.11-21.9 161.63-25.8 167.73-25.8L167.73-25.8Q170.98-25.8 173.53-24.4L173.53-24.4 173.53-20.65Q171.23-22.2 168.13-22.2L168.13-22.2Q163.83-22.2 161.26-19.43 158.68-16.65 158.68-12.55L158.68-12.55Q158.73-8.45 161.18-5.73 163.63-3 168.13-3L168.13-3Q171.03-3 173.53-4.65L173.53-4.65ZM198.13-5L198.13-1.3Q195.18 0.25 190.93 0.25L190.93 0.25Q185.18 0.25 181.66-3.28 178.13-6.8 178.13-12.6L178.13-12.6Q178.13-18.65 181.28-22.15 184.43-25.65 189.38-25.65L189.38-25.65Q194.13-25.65 196.93-22.6 199.73-19.55 199.73-13.95L199.73-13.95Q199.73-12.35 199.48-11L199.48-11 182.18-11Q182.63-7.25 185.03-5.25 187.43-3.25 191.33-3.25L191.33-3.25Q195.58-3.25 198.13-5L198.13-5ZM189.38-22.2L189.38-22.2Q186.53-22.2 184.53-20.15 182.53-18.1 182.18-14.3L182.18-14.3 195.78-14.3 195.78-15.3Q195.78-18.45 194.08-20.33 192.38-22.2 189.38-22.2Z" opacity="1" transform="matrix(1,0,0,1,0,0)" fill="#1e88e5" class="wordmark-text-0" data-fill-palette-color="primary" id="text-0"></path></svg></g></svg></g></svg></g></svg></g></svg></g></svg></g></svg></g><path d="M187.759 94.86L187.759 33.519 7.597 33.519 7.597 213.681 187.759 213.681 187.759 152.34 183.658 152.34 183.658 209.58 11.698 209.58 11.698 37.62 183.658 37.62 183.658 94.86Z" fill="#1e88e5" stroke="transparent" data-fill-palette-color="primary"></path></svg></g><defs></defs></svg><rect width="395.52" height="247.2" fill="none" stroke="none" visibility="hidden"></rect></g></svg></g></svg>